# Blender v2.92.0 OBJ File: 'yellow robot. anim v2.blend'
# www.blender.org
mtllib shotgun power up.mtl
o Cube.004
v -1.000000 0.005635 1.001766
v -1.000000 2.005635 1.001766
v -1.000000 0.005635 -0.998234
v -1.000000 2.005635 -0.998234
v 1.000000 0.005635 1.001766
v 1.000000 2.005635 1.001766
v 1.000000 0.005635 -0.998234
v 1.000000 2.005635 -0.998234
vt 0.000429 0.218232
vt 0.000429 0.590319
vt 0.373291 0.590319
vt 0.373291 0.218232
vt 0.000429 0.218232
vt 0.000429 0.590319
vt 0.373291 0.590319
vt 0.373291 0.218232
vt 0.000429 0.590319
vt 0.000429 0.218232
vt 0.373291 0.218232
vt 0.373291 0.590319
vt 0.000429 0.590319
vt 0.373291 0.590319
vt 0.000429 0.218232
vt 0.373291 0.218232
vn -1.0000 0.0000 0.0000
vn 0.0000 0.0000 -1.0000
vn 1.0000 0.0000 0.0000
vn 0.0000 0.0000 1.0000
vn 0.0000 -1.0000 0.0000
vn 0.0000 1.0000 0.0000
usemtl Material.001
s off
f 1/1/1 2/2/1 4/3/1 3/4/1
f 3/5/2 4/6/2 8/7/2 7/8/2
f 7/8/3 8/7/3 6/9/3 5/10/3
f 5/11/4 6/12/4 2/2/4 1/1/4
f 3/13/5 7/14/5 5/11/5 1/1/5
f 8/7/6 4/6/6 2/15/6 6/16/6
